<svg xmlns="http://www.w3.org/2000/svg" width="970" height="1875" viewBox="0 0 970 1875" role="img" aria-label="FLOW 02 PARTNERSHIPS PROCESS"><title>FLOW 02 PARTNERSHIPS PROCESS</title><defs><marker id="arrow" markerWidth="10" markerHeight="10" refX="9" refY="5" orient="auto"><path d="M0,0 L10,5 L0,10 Z" fill="#E31B23"/></marker></defs><rect width="970" height="1875" fill="#101010"/><rect width="970" height="9" fill="#D40000"/><text x="60" y="52" fill="#FFFFFF" font-family="Arial,DejaVu Sans,sans-serif" font-size="30" font-weight="700">FLOW 02 PARTNERSHIPS PROCESS</text><text x="60" y="86" fill="#CCCCCC" font-family="Arial,DejaVu Sans,sans-serif" font-size="18">Complete diagram • split sections shown in Markdown where needed</text><path d="M485,379.5 L485,431 L485,431 L485,482.5" stroke="#E31B23" stroke-width="4.5" fill="none" stroke-linecap="round" stroke-linejoin="round" marker-end="url(#arrow)"/><path d="M485,758.5 L485,810 L272.5,810 L272.5,861.5" stroke="#E31B23" stroke-width="4.5" fill="none" stroke-linecap="round" stroke-linejoin="round" marker-end="url(#arrow)"/><rect x="340.75" y="771" width="76" height="34" rx="7" fill="#FFFFFF" stroke="#CC0000" stroke-width="2"/><text x="378.75" y="794" font-size="18" font-weight="700" text-anchor="middle" fill="#101010" font-family="Arial,sans-serif">Yes</text><path d="M485,758.5 L485,810 L697.5,810 L697.5,861.5" stroke="#E31B23" stroke-width="4.5" fill="none" stroke-linecap="round" stroke-linejoin="round" marker-end="url(#arrow)"/><rect x="481.25" y="771" width="220" height="34" rx="7" fill="#FFFFFF" stroke="#CC0000" stroke-width="2"/><text x="591.25" y="794" font-size="18" font-weight="700" text-anchor="middle" fill="#101010" font-family="Arial,sans-serif">Preparation needed</text><path d="M697.5,1049.5 L917.5,1049.5 L917.5,806.5 L485,806.5 L485,482.5" stroke="#E31B23" stroke-width="4.5" fill="none" stroke-linecap="round" stroke-linejoin="round" marker-end="url(#arrow)"/><path d="M272.5,1049.5 L272.5,1123 L485,1123 L485,1196.5" stroke="#E31B23" stroke-width="4.5" fill="none" stroke-linecap="round" stroke-linejoin="round" marker-end="url(#arrow)"/><path d="M485,1384.5 L485,1458 L485,1458 L485,1531.5" stroke="#E31B23" stroke-width="4.5" fill="none" stroke-linecap="round" stroke-linejoin="round" marker-end="url(#arrow)"/><rect x="310" y="203.5" width="350" height="176" rx="20" fill="#1A1A1A" stroke="#E31B23" stroke-width="5"/><text x="485" y="298.85" font-family="Arial,DejaVu Sans,sans-serif" fill="#FFFFFF" font-size="21" font-weight="700" text-anchor="middle"><tspan x="485" dy="0">Proposed student opportunity</tspan></text><polygon points="485,494.5 617,626.5 485,758.5 353,626.5" fill="#321717" stroke="#FF3434" stroke-width="6"/><text x="485" y="620.5" font-family="Arial,DejaVu Sans,sans-serif" fill="#FFFFFF" font-size="20" font-weight="700" text-anchor="middle"><tspan x="485" dy="0">Placement</tspan><tspan x="485" dy="26">standards met?</tspan></text><rect x="97.5" y="873.5" width="350" height="176" rx="20" fill="#1A1A1A" stroke="#E31B23" stroke-width="5"/><text x="272.5" y="955.2" font-family="Arial,DejaVu Sans,sans-serif" fill="#FFFFFF" font-size="21" font-weight="700" text-anchor="middle"><tspan x="272.5" dy="0">Student matching and</tspan><tspan x="272.5" dy="27.3">preparation</tspan></text><rect x="522.5" y="873.5" width="350" height="176" rx="20" fill="#1A1A1A" stroke="#E31B23" stroke-width="5"/><text x="697.5" y="968.85" font-family="Arial,DejaVu Sans,sans-serif" fill="#FFFFFF" font-size="21" font-weight="700" text-anchor="middle"><tspan x="697.5" dy="0">Complete requirements</tspan></text><rect x="310" y="1208.5" width="350" height="176" rx="20" fill="#1A1A1A" stroke="#E31B23" stroke-width="5"/><text x="485" y="1290.1999999999998" font-family="Arial,DejaVu Sans,sans-serif" fill="#FFFFFF" font-size="21" font-weight="700" text-anchor="middle"><tspan x="485" dy="0">Supervised professional</tspan><tspan x="485" dy="27.3">experience</tspan></text><rect x="310" y="1543.5" width="350" height="176" rx="20" fill="#1A1A1A" stroke="#E31B23" stroke-width="5"/><text x="485" y="1638.85" font-family="Arial,DejaVu Sans,sans-serif" fill="#FFFFFF" font-size="21" font-weight="700" text-anchor="middle"><tspan x="485" dy="0">Feedback and completion</tspan></text><text x="60" y="1848" fill="#BDBDBD" font-family="Arial,DejaVu Sans,sans-serif" font-size="16">RIAH Pathway • original diagram steps and connections preserved</text></svg>
