<svg xmlns="http://www.w3.org/2000/svg" width="1608" height="1196" viewBox="0 0 1608 1196" role="img" aria-label="VI. HOURLY LEGACY FLOW"><title>VI. HOURLY LEGACY FLOW</title><defs><marker id="arrow" markerWidth="9" markerHeight="9" refX="8" refY="4.5" orient="auto"><path d="M0,0 L9,4.5 L0,9 Z" fill="#CC0000"/></marker></defs><rect width="1608" height="1196" fill="#101010"/><path d="M0,6 H1608" stroke="#CC0000" stroke-width="7"/><text x="50" y="55" fill="#FFFFFF" font-family="Arial,sans-serif" font-size="27" font-weight="700">VI. HOURLY LEGACY FLOW</text><path d="M352,203 L402,203 L402,533 L447,533" fill="none" stroke="#CC0000" stroke-width="2.5" marker-end="url(#arrow)" opacity=".95"/><path d="M754,533 L804,533 L804,533 L849,533" fill="none" stroke="#CC0000" stroke-width="2.5" marker-end="url(#arrow)" opacity=".95"/><path d="M1156,533 L1206,533 L1206,533 L1251,533" fill="none" stroke="#CC0000" stroke-width="2.5" marker-end="url(#arrow)" opacity=".95"/><path d="M352,643 L402,643 L402,753 L447,753" fill="none" stroke="#CC0000" stroke-width="2.5" marker-end="url(#arrow)" opacity=".95"/><path d="M352,863 L402,863 L402,753 L447,753" fill="none" stroke="#CC0000" stroke-width="2.5" marker-end="url(#arrow)" opacity=".95"/><path d="M352,1083 L402,1083 L402,753 L447,753" fill="none" stroke="#CC0000" stroke-width="2.5" marker-end="url(#arrow)" opacity=".95"/><path d="M754,753 L804,753 L804,753 L849,753" fill="none" stroke="#CC0000" stroke-width="2.5" marker-end="url(#arrow)" opacity=".95"/><path d="M1156,753 L1206,753 L1206,753 L1251,753" fill="none" stroke="#CC0000" stroke-width="2.5" marker-end="url(#arrow)" opacity=".95"/><rect x="50" y="140" width="302" height="126" rx="13" fill="#181818" stroke="#D40000" stroke-width="3"/><text x="201" y="208" font-family="Arial,sans-serif" fill="#FFFFFF" text-anchor="middle" font-size="16" font-weight="600"><tspan x="201" dy="0">🌐 Public Sources</tspan></text><rect x="452" y="470" width="302" height="126" rx="13" fill="#181818" stroke="#D40000" stroke-width="3"/><text x="603" y="538" font-family="Arial,sans-serif" fill="#FFFFFF" text-anchor="middle" font-size="16" font-weight="600"><tspan x="603" dy="0">🔎 Legacy Scan</tspan></text><rect x="854" y="470" width="302" height="126" rx="13" fill="#181818" stroke="#D40000" stroke-width="3"/><text x="1005" y="538" font-family="Arial,sans-serif" fill="#FFFFFF" text-anchor="middle" font-size="16" font-weight="600"><tspan x="1005" dy="0">🧬 RIAH Fingerprint Test</tspan></text><polygon points="1407,470 1558,533 1407,596 1256,533" fill="#181818" stroke="#D40000" stroke-width="3"/><text x="1407" y="538" font-family="Arial,sans-serif" fill="#FFFFFF" text-anchor="middle" font-size="16" font-weight="600"><tspan x="1407" dy="0">Material Match?</tspan></text><rect x="50" y="360" width="302" height="126" rx="13" fill="#181818" stroke="#D40000" stroke-width="3"/><text x="201" y="428" font-family="Arial,sans-serif" fill="#FFFFFF" text-anchor="middle" font-size="16" font-weight="600"><tspan x="201" dy="0">🟢 Suppress Prior Art</tspan></text><rect x="50" y="580" width="302" height="126" rx="13" fill="#181818" stroke="#D40000" stroke-width="3"/><text x="201" y="648" font-family="Arial,sans-serif" fill="#FFFFFF" text-anchor="middle" font-size="16" font-weight="600"><tspan x="201" dy="0">🟡 Integrated Component Review</tspan></text><rect x="50" y="800" width="302" height="126" rx="13" fill="#181818" stroke="#D40000" stroke-width="3"/><text x="201" y="868" font-family="Arial,sans-serif" fill="#FFFFFF" text-anchor="middle" font-size="16" font-weight="600"><tspan x="201" dy="0">🟡 Substantial System Review</tspan></text><rect x="50" y="1020" width="302" height="126" rx="13" fill="#181818" stroke="#D40000" stroke-width="3"/><text x="201" y="1088" font-family="Arial,sans-serif" fill="#FFFFFF" text-anchor="middle" font-size="16" font-weight="600"><tspan x="201" dy="0">🔴 Whole Ecosystem Review</tspan></text><rect x="452" y="690" width="302" height="126" rx="13" fill="#181818" stroke="#D40000" stroke-width="3"/><text x="603" y="758" font-family="Arial,sans-serif" fill="#FFFFFF" text-anchor="middle" font-size="16" font-weight="600"><tspan x="603" dy="0">🕒 Preserve Evidence</tspan></text><rect x="854" y="690" width="302" height="126" rx="13" fill="#181818" stroke="#D40000" stroke-width="3"/><text x="1005" y="758" font-family="Arial,sans-serif" fill="#FFFFFF" text-anchor="middle" font-size="16" font-weight="600"><tspan x="1005" dy="0">🧾 Audit Log</tspan></text><rect x="1256" y="690" width="302" height="126" rx="13" fill="#181818" stroke="#D40000" stroke-width="3"/><text x="1407" y="758" font-family="Arial,sans-serif" fill="#FFFFFF" text-anchor="middle" font-size="16" font-weight="600"><tspan x="1407" dy="0">⚖️ Human and Legal Review</tspan></text></svg>
