<svg xmlns="http://www.w3.org/2000/svg" width="970" height="1205" viewBox="0 0 970 1205" role="img" aria-label="FLOW 03 RIAH PATHWAY LEGACY BOT • FLOW 02 / 03"><title>FLOW 03 RIAH PATHWAY LEGACY BOT • FLOW 02 / 03</title><defs><marker id="arrow" markerWidth="10" markerHeight="10" refX="9" refY="5" orient="auto"><path d="M0,0 L10,5 L0,10 Z" fill="#E31B23"/></marker></defs><rect width="970" height="1205" fill="#101010"/><rect width="970" height="9" fill="#D40000"/><text x="60" y="52" fill="#FFFFFF" font-family="Arial,DejaVu Sans,sans-serif" font-size="30" font-weight="700">FLOW 03 RIAH PATHWAY LEGACY BOT • FLOW 02 / 03</text><text x="60" y="86" fill="#CCCCCC" font-family="Arial,DejaVu Sans,sans-serif" font-size="18">Material Match? → 🕒 Preserve Evidence</text><path d="M272.5,423.5 L272.5,475 L272.5,475 L272.5,526.5" stroke="#E31B23" stroke-width="4.5" fill="none" stroke-linecap="round" stroke-linejoin="round" marker-end="url(#arrow)"/><rect x="228.5" y="436" width="88" height="34" rx="7" fill="#FFFFFF" stroke="#CC0000" stroke-width="2"/><text x="272.5" y="459" font-size="18" font-weight="700" text-anchor="middle" fill="#101010" font-family="Arial,sans-serif">Tier 2</text><path d="M272.5,423.5 L272.5,475 L697.5,475 L697.5,526.5" stroke="#E31B23" stroke-width="4.5" fill="none" stroke-linecap="round" stroke-linejoin="round" marker-end="url(#arrow)"/><rect x="441" y="436" width="88" height="34" rx="7" fill="#FFFFFF" stroke="#CC0000" stroke-width="2"/><text x="485" y="459" font-size="18" font-weight="700" text-anchor="middle" fill="#101010" font-family="Arial,sans-serif">Tier 3</text><path d="M697.5,379.5 L697.5,620.5 L485,620.5 L485,861.5" stroke="#E31B23" stroke-width="4.5" fill="none" stroke-linecap="round" stroke-linejoin="round" marker-end="url(#arrow)"/><path d="M272.5,714.5 L272.5,788 L485,788 L485,861.5" stroke="#E31B23" stroke-width="4.5" fill="none" stroke-linecap="round" stroke-linejoin="round" marker-end="url(#arrow)"/><path d="M697.5,714.5 L697.5,788 L485,788 L485,861.5" stroke="#E31B23" stroke-width="4.5" fill="none" stroke-linecap="round" stroke-linejoin="round" marker-end="url(#arrow)"/><polygon points="272.5,159.5 404.5,291.5 272.5,423.5 140.5,291.5" fill="#321717" stroke="#FF3434" stroke-width="6"/><text x="272.5" y="298.5" font-family="Arial,DejaVu Sans,sans-serif" fill="#FFFFFF" font-size="20" font-weight="700" text-anchor="middle"><tspan x="272.5" dy="0">Material Match?</tspan></text><rect x="97.5" y="538.5" width="350" height="176" rx="20" fill="#1A1A1A" stroke="#E31B23" stroke-width="5"/><text x="272.5" y="633.85" font-family="Arial,DejaVu Sans,sans-serif" fill="#FFFFFF" font-size="21" font-weight="700" text-anchor="middle"><tspan x="272.5" dy="0">🟡 Substantial System Review</tspan></text><rect x="522.5" y="538.5" width="350" height="176" rx="20" fill="#1A1A1A" stroke="#E31B23" stroke-width="5"/><text x="697.5" y="633.85" font-family="Arial,DejaVu Sans,sans-serif" fill="#FFFFFF" font-size="21" font-weight="700" text-anchor="middle"><tspan x="697.5" dy="0">🔴 Whole Ecosystem Review</tspan></text><rect x="522.5" y="203.5" width="350" height="176" rx="20" fill="#1A1A1A" stroke="#E31B23" stroke-width="5"/><text x="697.5" y="285.20000000000005" font-family="Arial,DejaVu Sans,sans-serif" fill="#FFFFFF" font-size="21" font-weight="700" text-anchor="middle"><tspan x="697.5" dy="0">🟡 Integrated Component</tspan><tspan x="697.5" dy="27.3">Review</tspan></text><rect x="310" y="873.5" width="350" height="176" rx="20" fill="#1A1A1A" stroke="#E31B23" stroke-width="5"/><text x="485" y="968.85" font-family="Arial,DejaVu Sans,sans-serif" fill="#FFFFFF" font-size="21" font-weight="700" text-anchor="middle"><tspan x="485" dy="0">🕒 Preserve Evidence</tspan></text><text x="60" y="1178" fill="#BDBDBD" font-family="Arial,DejaVu Sans,sans-serif" font-size="16">RIAH Pathway • original diagram steps and connections preserved</text></svg>
