<svg xmlns="http://www.w3.org/2000/svg" width="1820" height="5895" viewBox="0 0 1820 5895" role="img" aria-label="FLOW 19 GED STRUCTURE"><title>FLOW 19 GED STRUCTURE</title><defs><marker id="arrow" markerWidth="10" markerHeight="10" refX="9" refY="5" orient="auto"><path d="M0,0 L10,5 L0,10 Z" fill="#E31B23"/></marker></defs><rect width="1820" height="5895" fill="#101010"/><rect width="1820" height="9" fill="#D40000"/><text x="60" y="52" fill="#FFFFFF" font-family="Arial,DejaVu Sans,sans-serif" font-size="30" font-weight="700">FLOW 19 GED STRUCTURE</text><text x="60" y="86" fill="#CCCCCC" font-family="Arial,DejaVu Sans,sans-serif" font-size="18">Complete diagram • split sections shown in Markdown where needed</text><path d="M910,379.5 L910,453 L910,453 L910,526.5" stroke="#E31B23" stroke-width="4.5" fill="none" stroke-linecap="round" stroke-linejoin="round" marker-end="url(#arrow)"/><path d="M910,714.5 L910,788 L697.5,788 L697.5,861.5" stroke="#E31B23" stroke-width="4.5" fill="none" stroke-linecap="round" stroke-linejoin="round" marker-end="url(#arrow)"/><path d="M910,714.5 L910,788 L1122.5,788 L1122.5,861.5" stroke="#E31B23" stroke-width="4.5" fill="none" stroke-linecap="round" stroke-linejoin="round" marker-end="url(#arrow)"/><path d="M697.5,1049.5 L697.5,1123 L697.5,1123 L697.5,1196.5" stroke="#E31B23" stroke-width="4.5" fill="none" stroke-linecap="round" stroke-linejoin="round" marker-end="url(#arrow)"/><path d="M697.5,1384.5 L697.5,1458 L697.5,1458 L697.5,1531.5" stroke="#E31B23" stroke-width="4.5" fill="none" stroke-linecap="round" stroke-linejoin="round" marker-end="url(#arrow)"/><path d="M697.5,1719.5 L697.5,1793 L697.5,1793 L697.5,1866.5" stroke="#E31B23" stroke-width="4.5" fill="none" stroke-linecap="round" stroke-linejoin="round" marker-end="url(#arrow)"/><path d="M697.5,2054.5 L697.5,2128 L697.5,2128 L697.5,2201.5" stroke="#E31B23" stroke-width="4.5" fill="none" stroke-linecap="round" stroke-linejoin="round" marker-end="url(#arrow)"/><path d="M697.5,2389.5 L697.5,2463 L697.5,2463 L697.5,2536.5" stroke="#E31B23" stroke-width="4.5" fill="none" stroke-linecap="round" stroke-linejoin="round" marker-end="url(#arrow)"/><path d="M1122.5,1049.5 L1122.5,1123 L1122.5,1123 L1122.5,1196.5" stroke="#E31B23" stroke-width="4.5" fill="none" stroke-linecap="round" stroke-linejoin="round" marker-end="url(#arrow)"/><path d="M1122.5,1384.5 L1122.5,1458 L1122.5,1458 L1122.5,1531.5" stroke="#E31B23" stroke-width="4.5" fill="none" stroke-linecap="round" stroke-linejoin="round" marker-end="url(#arrow)"/><path d="M1122.5,1719.5 L1122.5,1793 L1122.5,1793 L1122.5,1866.5" stroke="#E31B23" stroke-width="4.5" fill="none" stroke-linecap="round" stroke-linejoin="round" marker-end="url(#arrow)"/><path d="M1122.5,2054.5 L1122.5,2128 L1122.5,2128 L1122.5,2201.5" stroke="#E31B23" stroke-width="4.5" fill="none" stroke-linecap="round" stroke-linejoin="round" marker-end="url(#arrow)"/><path d="M1122.5,2389.5 L1122.5,2463 L1122.5,2463 L1122.5,2536.5" stroke="#E31B23" stroke-width="4.5" fill="none" stroke-linecap="round" stroke-linejoin="round" marker-end="url(#arrow)"/><path d="M1122.5,2724.5 L1122.5,2798 L910,2798 L910,2871.5" stroke="#E31B23" stroke-width="4.5" fill="none" stroke-linecap="round" stroke-linejoin="round" marker-end="url(#arrow)"/><path d="M910,3059.5 L910,3133 L910,3133 L910,3206.5" stroke="#E31B23" stroke-width="4.5" fill="none" stroke-linecap="round" stroke-linejoin="round" marker-end="url(#arrow)"/><path d="M697.5,2724.5 L697.5,3133 L910,3133 L910,3541.5" stroke="#E31B23" stroke-width="4.5" fill="none" stroke-linecap="round" stroke-linejoin="round" marker-end="url(#arrow)"/><path d="M910,3394.5 L910,3468 L910,3468 L910,3541.5" stroke="#E31B23" stroke-width="4.5" fill="none" stroke-linecap="round" stroke-linejoin="round" marker-end="url(#arrow)"/><path d="M910,3729.5 L910,3803 L697.5,3803 L697.5,3876.5" stroke="#E31B23" stroke-width="4.5" fill="none" stroke-linecap="round" stroke-linejoin="round" marker-end="url(#arrow)"/><path d="M910,3729.5 L910,3803 L1122.5,3803 L1122.5,3876.5" stroke="#E31B23" stroke-width="4.5" fill="none" stroke-linecap="round" stroke-linejoin="round" marker-end="url(#arrow)"/><path d="M697.5,4064.5 L697.5,4138 L272.5,4138 L272.5,4211.5" stroke="#E31B23" stroke-width="4.5" fill="none" stroke-linecap="round" stroke-linejoin="round" marker-end="url(#arrow)"/><path d="M697.5,4064.5 L697.5,4138 L697.5,4138 L697.5,4211.5" stroke="#E31B23" stroke-width="4.5" fill="none" stroke-linecap="round" stroke-linejoin="round" marker-end="url(#arrow)"/><path d="M697.5,4064.5 L697.5,4138 L1122.5,4138 L1122.5,4211.5" stroke="#E31B23" stroke-width="4.5" fill="none" stroke-linecap="round" stroke-linejoin="round" marker-end="url(#arrow)"/><path d="M697.5,4064.5 L697.5,4138 L1547.5,4138 L1547.5,4211.5" stroke="#E31B23" stroke-width="4.5" fill="none" stroke-linecap="round" stroke-linejoin="round" marker-end="url(#arrow)"/><path d="M272.5,4399.5 L272.5,4473 L910,4473 L910,4546.5" stroke="#E31B23" stroke-width="4.5" fill="none" stroke-linecap="round" stroke-linejoin="round" marker-end="url(#arrow)"/><path d="M697.5,4399.5 L697.5,4473 L910,4473 L910,4546.5" stroke="#E31B23" stroke-width="4.5" fill="none" stroke-linecap="round" stroke-linejoin="round" marker-end="url(#arrow)"/><path d="M1122.5,4399.5 L1122.5,4473 L910,4473 L910,4546.5" stroke="#E31B23" stroke-width="4.5" fill="none" stroke-linecap="round" stroke-linejoin="round" marker-end="url(#arrow)"/><path d="M1547.5,4399.5 L1547.5,4473 L910,4473 L910,4546.5" stroke="#E31B23" stroke-width="4.5" fill="none" stroke-linecap="round" stroke-linejoin="round" marker-end="url(#arrow)"/><path d="M910,4734.5 L910,4808 L910,4808 L910,4881.5" stroke="#E31B23" stroke-width="4.5" fill="none" stroke-linecap="round" stroke-linejoin="round" marker-end="url(#arrow)"/><path d="M910,5069.5 L910,5143 L910,5143 L910,5216.5" stroke="#E31B23" stroke-width="4.5" fill="none" stroke-linecap="round" stroke-linejoin="round" marker-end="url(#arrow)"/><path d="M910,5404.5 L910,5478 L910,5478 L910,5551.5" stroke="#E31B23" stroke-width="4.5" fill="none" stroke-linecap="round" stroke-linejoin="round" marker-end="url(#arrow)"/><rect x="735" y="203.5" width="350" height="176" rx="20" fill="#1A1A1A" stroke="#E31B23" stroke-width="5"/><text x="910" y="298.85" font-family="Arial,DejaVu Sans,sans-serif" fill="#FFFFFF" font-size="21" font-weight="700" text-anchor="middle"><tspan x="910" dy="0">RIAH PATHWAY SECONDARY SCHOOL</tspan></text><rect x="735" y="538.5" width="350" height="176" rx="20" fill="#1A1A1A" stroke="#E31B23" stroke-width="5"/><text x="910" y="633.85" font-family="Arial,DejaVu Sans,sans-serif" fill="#FFFFFF" font-size="21" font-weight="700" text-anchor="middle"><tspan x="910" dy="0">STUDENT SELECTS PATHWAY</tspan></text><rect x="522.5" y="873.5" width="350" height="176" rx="20" fill="#1A1A1A" stroke="#E31B23" stroke-width="5"/><text x="697.5" y="968.85" font-family="Arial,DejaVu Sans,sans-serif" fill="#FFFFFF" font-size="21" font-weight="700" text-anchor="middle"><tspan x="697.5" dy="0">HIGH SCHOOL DIPLOMA</tspan></text><rect x="947.5" y="873.5" width="350" height="176" rx="20" fill="#1A1A1A" stroke="#E31B23" stroke-width="5"/><text x="1122.5" y="968.85" font-family="Arial,DejaVu Sans,sans-serif" fill="#FFFFFF" font-size="21" font-weight="700" text-anchor="middle"><tspan x="1122.5" dy="0">GED / HSE PREPARATION</tspan></text><rect x="522.5" y="1208.5" width="350" height="176" rx="20" fill="#1A1A1A" stroke="#E31B23" stroke-width="5"/><text x="697.5" y="1303.85" font-family="Arial,DejaVu Sans,sans-serif" fill="#FFFFFF" font-size="21" font-weight="700" text-anchor="middle"><tspan x="697.5" dy="0">GRADES 9–12</tspan></text><rect x="522.5" y="1543.5" width="350" height="176" rx="20" fill="#1A1A1A" stroke="#E31B23" stroke-width="5"/><text x="697.5" y="1638.85" font-family="Arial,DejaVu Sans,sans-serif" fill="#FFFFFF" font-size="21" font-weight="700" text-anchor="middle"><tspan x="697.5" dy="0">FULL HIGH SCHOOL CURRICULUM</tspan></text><rect x="522.5" y="1878.5" width="350" height="176" rx="20" fill="#1A1A1A" stroke="#E31B23" stroke-width="5"/><text x="697.5" y="1973.85" font-family="Arial,DejaVu Sans,sans-serif" fill="#FFFFFF" font-size="21" font-weight="700" text-anchor="middle"><tspan x="697.5" dy="0">TRANSCRIPT + GPA</tspan></text><rect x="522.5" y="2213.5" width="350" height="176" rx="20" fill="#1A1A1A" stroke="#E31B23" stroke-width="5"/><text x="697.5" y="2295.2" font-family="Arial,DejaVu Sans,sans-serif" fill="#FFFFFF" font-size="21" font-weight="700" text-anchor="middle"><tspan x="697.5" dy="0">CONCURRENT COLLEGE-LEVEL</tspan><tspan x="697.5" dy="27.3">COURSEWORK WHERE APPLICABLE</tspan></text><rect x="522.5" y="2548.5" width="350" height="176" rx="20" fill="#1A1A1A" stroke="#E31B23" stroke-width="5"/><text x="697.5" y="2643.85" font-family="Arial,DejaVu Sans,sans-serif" fill="#FFFFFF" font-size="21" font-weight="700" text-anchor="middle"><tspan x="697.5" dy="0">HIGH SCHOOL DIPLOMA</tspan></text><rect x="947.5" y="1208.5" width="350" height="176" rx="20" fill="#1A1A1A" stroke="#E31B23" stroke-width="5"/><text x="1122.5" y="1303.85" font-family="Arial,DejaVu Sans,sans-serif" fill="#FFFFFF" font-size="21" font-weight="700" text-anchor="middle"><tspan x="1122.5" dy="0">GED 101–104</tspan></text><rect x="947.5" y="1543.5" width="350" height="176" rx="20" fill="#1A1A1A" stroke="#E31B23" stroke-width="5"/><text x="1122.5" y="1625.1999999999998" font-family="Arial,DejaVu Sans,sans-serif" fill="#FFFFFF" font-size="21" font-weight="700" text-anchor="middle"><tspan x="1122.5" dy="0">McGRAW HILL + HiSET MATERIALS</tspan><tspan x="1122.5" dy="27.3">WHERE APPLICABLE</tspan></text><rect x="947.5" y="1878.5" width="350" height="176" rx="20" fill="#1A1A1A" stroke="#E31B23" stroke-width="5"/><text x="1122.5" y="1960.1999999999998" font-family="Arial,DejaVu Sans,sans-serif" fill="#FFFFFF" font-size="21" font-weight="700" text-anchor="middle"><tspan x="1122.5" dy="0">RIAH PROCTORED CHECKPOINTS +</tspan><tspan x="1122.5" dy="27.3">FINALS</tspan></text><rect x="947.5" y="2213.5" width="350" height="176" rx="20" fill="#1A1A1A" stroke="#E31B23" stroke-width="5"/><text x="1122.5" y="2308.85" font-family="Arial,DejaVu Sans,sans-serif" fill="#FFFFFF" font-size="21" font-weight="700" text-anchor="middle"><tspan x="1122.5" dy="0">80% MINIMUM</tspan></text><rect x="947.5" y="2548.5" width="350" height="176" rx="20" fill="#1A1A1A" stroke="#E31B23" stroke-width="5"/><text x="1122.5" y="2630.2" font-family="Arial,DejaVu Sans,sans-serif" fill="#FFFFFF" font-size="21" font-weight="700" text-anchor="middle"><tspan x="1122.5" dy="0">12 GED PREP CREDITS + UP TO</tspan><tspan x="1122.5" dy="27.3">12 CONCURRENT GE CREDITS</tspan></text><rect x="735" y="2883.5" width="350" height="176" rx="20" fill="#1A1A1A" stroke="#E31B23" stroke-width="5"/><text x="910" y="2978.85" font-family="Arial,DejaVu Sans,sans-serif" fill="#FFFFFF" font-size="21" font-weight="700" text-anchor="middle"><tspan x="910" dy="0">PREPARATION COMPLETE</tspan></text><rect x="735" y="3218.5" width="350" height="176" rx="20" fill="#1A1A1A" stroke="#E31B23" stroke-width="5"/><text x="910" y="3300.2" font-family="Arial,DejaVu Sans,sans-serif" fill="#FFFFFF" font-size="21" font-weight="700" text-anchor="middle"><tspan x="910" dy="0">SEPARATE OFFICIAL HSE</tspan><tspan x="910" dy="27.3">CREDENTIALING</tspan></text><rect x="735" y="3553.5" width="350" height="176" rx="20" fill="#1A1A1A" stroke="#E31B23" stroke-width="5"/><text x="910" y="3648.85" font-family="Arial,DejaVu Sans,sans-serif" fill="#FFFFFF" font-size="21" font-weight="700" text-anchor="middle"><tspan x="910" dy="0">POSTSECONDARY PATH</tspan></text><rect x="522.5" y="3888.5" width="350" height="176" rx="20" fill="#1A1A1A" stroke="#E31B23" stroke-width="5"/><text x="697.5" y="3983.85" font-family="Arial,DejaVu Sans,sans-serif" fill="#FFFFFF" font-size="21" font-weight="700" text-anchor="middle"><tspan x="697.5" dy="0">RIAH PATHWAY</tspan></text><rect x="947.5" y="3888.5" width="350" height="176" rx="20" fill="#1A1A1A" stroke="#E31B23" stroke-width="5"/><text x="1122.5" y="3970.2" font-family="Arial,DejaVu Sans,sans-serif" fill="#FFFFFF" font-size="21" font-weight="700" text-anchor="middle"><tspan x="1122.5" dy="0">OTHER POSTSECONDARY</tspan><tspan x="1122.5" dy="27.3">INSTITUTION</tspan></text><rect x="97.5" y="4223.5" width="350" height="176" rx="20" fill="#1A1A1A" stroke="#E31B23" stroke-width="5"/><text x="272.5" y="4318.85" font-family="Arial,DejaVu Sans,sans-serif" fill="#FFFFFF" font-size="21" font-weight="700" text-anchor="middle"><tspan x="272.5" dy="0">School of Business</tspan></text><rect x="522.5" y="4223.5" width="350" height="176" rx="20" fill="#1A1A1A" stroke="#E31B23" stroke-width="5"/><text x="697.5" y="4318.85" font-family="Arial,DejaVu Sans,sans-serif" fill="#FFFFFF" font-size="21" font-weight="700" text-anchor="middle"><tspan x="697.5" dy="0">School of Technology</tspan></text><rect x="947.5" y="4223.5" width="350" height="176" rx="20" fill="#1A1A1A" stroke="#E31B23" stroke-width="5"/><text x="1122.5" y="4318.85" font-family="Arial,DejaVu Sans,sans-serif" fill="#FFFFFF" font-size="21" font-weight="700" text-anchor="middle"><tspan x="1122.5" dy="0">School of Law</tspan></text><rect x="1372.5" y="4223.5" width="350" height="176" rx="20" fill="#1A1A1A" stroke="#E31B23" stroke-width="5"/><text x="1547.5" y="4318.85" font-family="Arial,DejaVu Sans,sans-serif" fill="#FFFFFF" font-size="21" font-weight="700" text-anchor="middle"><tspan x="1547.5" dy="0">School of Homeland Security</tspan></text><rect x="735" y="4558.5" width="350" height="176" rx="20" fill="#1A1A1A" stroke="#E31B23" stroke-width="5"/><text x="910" y="4653.85" font-family="Arial,DejaVu Sans,sans-serif" fill="#FFFFFF" font-size="21" font-weight="700" text-anchor="middle"><tspan x="910" dy="0">GENERAL EDUCATION</tspan></text><rect x="735" y="4893.5" width="350" height="176" rx="20" fill="#1A1A1A" stroke="#E31B23" stroke-width="5"/><text x="910" y="4988.85" font-family="Arial,DejaVu Sans,sans-serif" fill="#FFFFFF" font-size="21" font-weight="700" text-anchor="middle"><tspan x="910" dy="0">SCHOOL CORE</tspan></text><rect x="735" y="5228.5" width="350" height="176" rx="20" fill="#1A1A1A" stroke="#E31B23" stroke-width="5"/><text x="910" y="5323.85" font-family="Arial,DejaVu Sans,sans-serif" fill="#FFFFFF" font-size="21" font-weight="700" text-anchor="middle"><tspan x="910" dy="0">YEAR 3 / MAJOR PATHWAY</tspan></text><rect x="735" y="5563.5" width="350" height="176" rx="20" fill="#1A1A1A" stroke="#E31B23" stroke-width="5"/><text x="910" y="5658.85" font-family="Arial,DejaVu Sans,sans-serif" fill="#FFFFFF" font-size="21" font-weight="700" text-anchor="middle"><tspan x="910" dy="0">MAJOR COURSEWORK</tspan></text><text x="60" y="5868" fill="#BDBDBD" font-family="Arial,DejaVu Sans,sans-serif" font-size="16">RIAH Pathway • original diagram steps and connections preserved</text></svg>
