<svg xmlns="http://www.w3.org/2000/svg" width="1395" height="870" viewBox="0 0 1395 870" role="img" aria-label="FLOW 03 GED STRUCTURE • FLOW 03 / 03"><title>FLOW 03 GED STRUCTURE • FLOW 03 / 03</title><defs><marker id="arrow" markerWidth="10" markerHeight="10" refX="9" refY="5" orient="auto"><path d="M0,0 L10,5 L0,10 Z" fill="#E31B23"/></marker></defs><rect width="1395" height="870" fill="#101010"/><rect width="1395" height="9" fill="#D40000"/><text x="60" y="52" fill="#FFFFFF" font-family="Arial,DejaVu Sans,sans-serif" font-size="30" font-weight="700">FLOW 03 GED STRUCTURE • FLOW 03 / 03</text><text x="60" y="86" fill="#CCCCCC" font-family="Arial,DejaVu Sans,sans-serif" font-size="18">EDMENTUM → Where Applicable</text><path d="M485,379.5 L485,453 L272.5,453 L272.5,526.5" stroke="#E31B23" stroke-width="4.5" fill="none" stroke-linecap="round" stroke-linejoin="round" marker-end="url(#arrow)"/><path d="M485,379.5 L485,453 L697.5,453 L697.5,526.5" stroke="#E31B23" stroke-width="4.5" fill="none" stroke-linecap="round" stroke-linejoin="round" marker-end="url(#arrow)"/><path d="M910,379.5 L910,453 L1122.5,453 L1122.5,526.5" stroke="#E31B23" stroke-width="4.5" fill="none" stroke-linecap="round" stroke-linejoin="round" marker-end="url(#arrow)"/><rect x="310" y="203.5" width="350" height="176" rx="20" fill="#1A1A1A" stroke="#E31B23" stroke-width="5"/><text x="485" y="298.85" font-family="Arial,DejaVu Sans,sans-serif" fill="#FFFFFF" font-size="21" font-weight="700" text-anchor="middle"><tspan x="485" dy="0">EDMENTUM</tspan></text><rect x="97.5" y="538.5" width="350" height="176" rx="20" fill="#1A1A1A" stroke="#E31B23" stroke-width="5"/><text x="272.5" y="633.85" font-family="Arial,DejaVu Sans,sans-serif" fill="#FFFFFF" font-size="21" font-weight="700" text-anchor="middle"><tspan x="272.5" dy="0">General Education Courseware</tspan></text><rect x="522.5" y="538.5" width="350" height="176" rx="20" fill="#1A1A1A" stroke="#E31B23" stroke-width="5"/><text x="697.5" y="620.2" font-family="Arial,DejaVu Sans,sans-serif" fill="#FFFFFF" font-size="21" font-weight="700" text-anchor="middle"><tspan x="697.5" dy="0">Assessment / Learning</tspan><tspan x="697.5" dy="27.3">Resources</tspan></text><rect x="735" y="203.5" width="350" height="176" rx="20" fill="#1A1A1A" stroke="#E31B23" stroke-width="5"/><text x="910" y="298.85" font-family="Arial,DejaVu Sans,sans-serif" fill="#FFFFFF" font-size="21" font-weight="700" text-anchor="middle"><tspan x="910" dy="0">HiSET MATERIALS</tspan></text><rect x="947.5" y="538.5" width="350" height="176" rx="20" fill="#1A1A1A" stroke="#E31B23" stroke-width="5"/><text x="1122.5" y="633.85" font-family="Arial,DejaVu Sans,sans-serif" fill="#FFFFFF" font-size="21" font-weight="700" text-anchor="middle"><tspan x="1122.5" dy="0">Where Applicable</tspan></text><text x="60" y="843" fill="#BDBDBD" font-family="Arial,DejaVu Sans,sans-serif" font-size="16">RIAH Pathway • original diagram steps and connections preserved</text></svg>
