<svg xmlns="http://www.w3.org/2000/svg" width="3520" height="1540" viewBox="0 0 3520 1540" role="img" aria-label="FLOW 03 GED STRUCTURE"><title>FLOW 03 GED STRUCTURE</title><defs><marker id="arrow" markerWidth="10" markerHeight="10" refX="9" refY="5" orient="auto"><path d="M0,0 L10,5 L0,10 Z" fill="#E31B23"/></marker></defs><rect width="3520" height="1540" fill="#101010"/><rect width="3520" height="9" fill="#D40000"/><text x="60" y="52" fill="#FFFFFF" font-family="Arial,DejaVu Sans,sans-serif" font-size="30" font-weight="700">FLOW 03 GED STRUCTURE</text><text x="60" y="86" fill="#CCCCCC" font-family="Arial,DejaVu Sans,sans-serif" font-size="18">Complete diagram • split sections shown in Markdown where needed</text><path d="M1760,379.5 L1760,453 L1760,453 L1760,526.5" stroke="#E31B23" stroke-width="4.5" fill="none" stroke-linecap="round" stroke-linejoin="round" marker-end="url(#arrow)"/><path d="M1760,714.5 L1760,788 L272.5,788 L272.5,861.5" stroke="#E31B23" stroke-width="4.5" fill="none" stroke-linecap="round" stroke-linejoin="round" marker-end="url(#arrow)"/><path d="M1760,714.5 L1760,788 L697.5,788 L697.5,861.5" stroke="#E31B23" stroke-width="4.5" fill="none" stroke-linecap="round" stroke-linejoin="round" marker-end="url(#arrow)"/><path d="M1760,714.5 L1760,788 L1122.5,788 L1122.5,861.5" stroke="#E31B23" stroke-width="4.5" fill="none" stroke-linecap="round" stroke-linejoin="round" marker-end="url(#arrow)"/><path d="M1760,714.5 L1760,788 L1547.5,788 L1547.5,861.5" stroke="#E31B23" stroke-width="4.5" fill="none" stroke-linecap="round" stroke-linejoin="round" marker-end="url(#arrow)"/><path d="M1760,714.5 L1760,788 L1972.5,788 L1972.5,861.5" stroke="#E31B23" stroke-width="4.5" fill="none" stroke-linecap="round" stroke-linejoin="round" marker-end="url(#arrow)"/><path d="M1760,714.5 L1760,788 L2397.5,788 L2397.5,861.5" stroke="#E31B23" stroke-width="4.5" fill="none" stroke-linecap="round" stroke-linejoin="round" marker-end="url(#arrow)"/><path d="M1760,714.5 L1760,788 L2822.5,788 L2822.5,861.5" stroke="#E31B23" stroke-width="4.5" fill="none" stroke-linecap="round" stroke-linejoin="round" marker-end="url(#arrow)"/><path d="M1760,714.5 L1760,788 L3247.5,788 L3247.5,861.5" stroke="#E31B23" stroke-width="4.5" fill="none" stroke-linecap="round" stroke-linejoin="round" marker-end="url(#arrow)"/><path d="M2822.5,1049.5 L2822.5,1123 L1122.5,1123 L1122.5,1196.5" stroke="#E31B23" stroke-width="4.5" fill="none" stroke-linecap="round" stroke-linejoin="round" marker-end="url(#arrow)"/><path d="M2822.5,1049.5 L2822.5,1123 L1547.5,1123 L1547.5,1196.5" stroke="#E31B23" stroke-width="4.5" fill="none" stroke-linecap="round" stroke-linejoin="round" marker-end="url(#arrow)"/><path d="M2822.5,1049.5 L2822.5,1123 L1972.5,1123 L1972.5,1196.5" stroke="#E31B23" stroke-width="4.5" fill="none" stroke-linecap="round" stroke-linejoin="round" marker-end="url(#arrow)"/><path d="M3247.5,1049.5 L3247.5,1123 L2397.5,1123 L2397.5,1196.5" stroke="#E31B23" stroke-width="4.5" fill="none" stroke-linecap="round" stroke-linejoin="round" marker-end="url(#arrow)"/><rect x="1585" y="203.5" width="350" height="176" rx="20" fill="#1A1A1A" stroke="#E31B23" stroke-width="5"/><text x="1760" y="298.85" font-family="Arial,DejaVu Sans,sans-serif" fill="#FFFFFF" font-size="21" font-weight="700" text-anchor="middle"><tspan x="1760" dy="0">GED / HSE STUDENT</tspan></text><rect x="1585" y="538.5" width="350" height="176" rx="20" fill="#1A1A1A" stroke="#E31B23" stroke-width="5"/><text x="1760" y="633.85" font-family="Arial,DejaVu Sans,sans-serif" fill="#FFFFFF" font-size="21" font-weight="700" text-anchor="middle"><tspan x="1760" dy="0">RIAH LMS</tspan></text><rect x="97.5" y="873.5" width="350" height="176" rx="20" fill="#1A1A1A" stroke="#E31B23" stroke-width="5"/><text x="272.5" y="968.85" font-family="Arial,DejaVu Sans,sans-serif" fill="#FFFFFF" font-size="21" font-weight="700" text-anchor="middle"><tspan x="272.5" dy="0">RIAH Textbook</tspan></text><rect x="522.5" y="873.5" width="350" height="176" rx="20" fill="#1A1A1A" stroke="#E31B23" stroke-width="5"/><text x="697.5" y="968.85" font-family="Arial,DejaVu Sans,sans-serif" fill="#FFFFFF" font-size="21" font-weight="700" text-anchor="middle"><tspan x="697.5" dy="0">RIAH Workbook</tspan></text><rect x="947.5" y="873.5" width="350" height="176" rx="20" fill="#1A1A1A" stroke="#E31B23" stroke-width="5"/><text x="1122.5" y="968.85" font-family="Arial,DejaVu Sans,sans-serif" fill="#FFFFFF" font-size="21" font-weight="700" text-anchor="middle"><tspan x="1122.5" dy="0">RIAH Journal</tspan></text><rect x="1372.5" y="873.5" width="350" height="176" rx="20" fill="#1A1A1A" stroke="#E31B23" stroke-width="5"/><text x="1547.5" y="968.85" font-family="Arial,DejaVu Sans,sans-serif" fill="#FFFFFF" font-size="21" font-weight="700" text-anchor="middle"><tspan x="1547.5" dy="0">RIAH Planner</tspan></text><rect x="1797.5" y="873.5" width="350" height="176" rx="20" fill="#1A1A1A" stroke="#E31B23" stroke-width="5"/><text x="1972.5" y="968.85" font-family="Arial,DejaVu Sans,sans-serif" fill="#FFFFFF" font-size="21" font-weight="700" text-anchor="middle"><tspan x="1972.5" dy="0">RIAH Study Guide</tspan></text><rect x="2222.5" y="873.5" width="350" height="176" rx="20" fill="#1A1A1A" stroke="#E31B23" stroke-width="5"/><text x="2397.5" y="968.85" font-family="Arial,DejaVu Sans,sans-serif" fill="#FFFFFF" font-size="21" font-weight="700" text-anchor="middle"><tspan x="2397.5" dy="0">RIAH Review Guide</tspan></text><rect x="2647.5" y="873.5" width="350" height="176" rx="20" fill="#1A1A1A" stroke="#E31B23" stroke-width="5"/><text x="2822.5" y="968.85" font-family="Arial,DejaVu Sans,sans-serif" fill="#FFFFFF" font-size="21" font-weight="700" text-anchor="middle"><tspan x="2822.5" dy="0">EDMENTUM</tspan></text><rect x="947.5" y="1208.5" width="350" height="176" rx="20" fill="#1A1A1A" stroke="#E31B23" stroke-width="5"/><text x="1122.5" y="1303.85" font-family="Arial,DejaVu Sans,sans-serif" fill="#FFFFFF" font-size="21" font-weight="700" text-anchor="middle"><tspan x="1122.5" dy="0">GED/HSE Preparation Content</tspan></text><rect x="1372.5" y="1208.5" width="350" height="176" rx="20" fill="#1A1A1A" stroke="#E31B23" stroke-width="5"/><text x="1547.5" y="1303.85" font-family="Arial,DejaVu Sans,sans-serif" fill="#FFFFFF" font-size="21" font-weight="700" text-anchor="middle"><tspan x="1547.5" dy="0">General Education Courseware</tspan></text><rect x="1797.5" y="1208.5" width="350" height="176" rx="20" fill="#1A1A1A" stroke="#E31B23" stroke-width="5"/><text x="1972.5" y="1290.1999999999998" font-family="Arial,DejaVu Sans,sans-serif" fill="#FFFFFF" font-size="21" font-weight="700" text-anchor="middle"><tspan x="1972.5" dy="0">Assessment / Learning</tspan><tspan x="1972.5" dy="27.3">Resources</tspan></text><rect x="3072.5" y="873.5" width="350" height="176" rx="20" fill="#1A1A1A" stroke="#E31B23" stroke-width="5"/><text x="3247.5" y="968.85" font-family="Arial,DejaVu Sans,sans-serif" fill="#FFFFFF" font-size="21" font-weight="700" text-anchor="middle"><tspan x="3247.5" dy="0">HiSET MATERIALS</tspan></text><rect x="2222.5" y="1208.5" width="350" height="176" rx="20" fill="#1A1A1A" stroke="#E31B23" stroke-width="5"/><text x="2397.5" y="1303.85" font-family="Arial,DejaVu Sans,sans-serif" fill="#FFFFFF" font-size="21" font-weight="700" text-anchor="middle"><tspan x="2397.5" dy="0">Where Applicable</tspan></text><text x="60" y="1513" fill="#BDBDBD" font-family="Arial,DejaVu Sans,sans-serif" font-size="16">RIAH Pathway • original diagram steps and connections preserved</text></svg>
