<svg xmlns="http://www.w3.org/2000/svg" width="1820" height="2210" viewBox="0 0 1820 2210" role="img" aria-label="FLOW 17 GED STRUCTURE"><title>FLOW 17 GED STRUCTURE</title><defs><marker id="arrow" markerWidth="10" markerHeight="10" refX="9" refY="5" orient="auto"><path d="M0,0 L10,5 L0,10 Z" fill="#E31B23"/></marker></defs><rect width="1820" height="2210" fill="#101010"/><rect width="1820" height="9" fill="#D40000"/><text x="60" y="52" fill="#FFFFFF" font-family="Arial,DejaVu Sans,sans-serif" font-size="30" font-weight="700">FLOW 17 GED STRUCTURE</text><text x="60" y="86" fill="#CCCCCC" font-family="Arial,DejaVu Sans,sans-serif" font-size="18">Complete diagram • split sections shown in Markdown where needed</text><path d="M910,379.5 L910,453 L910,453 L910,526.5" stroke="#E31B23" stroke-width="4.5" fill="none" stroke-linecap="round" stroke-linejoin="round" marker-end="url(#arrow)"/><path d="M910,714.5 L910,788 L910,788 L910,861.5" stroke="#E31B23" stroke-width="4.5" fill="none" stroke-linecap="round" stroke-linejoin="round" marker-end="url(#arrow)"/><path d="M910,1049.5 L910,1123 L910,1123 L910,1196.5" stroke="#E31B23" stroke-width="4.5" fill="none" stroke-linecap="round" stroke-linejoin="round" marker-end="url(#arrow)"/><path d="M910,1384.5 L910,1458 L697.5,1458 L697.5,1531.5" stroke="#E31B23" stroke-width="4.5" fill="none" stroke-linecap="round" stroke-linejoin="round" marker-end="url(#arrow)"/><path d="M910,1384.5 L910,1458 L1122.5,1458 L1122.5,1531.5" stroke="#E31B23" stroke-width="4.5" fill="none" stroke-linecap="round" stroke-linejoin="round" marker-end="url(#arrow)"/><path d="M697.5,1719.5 L697.5,1793 L272.5,1793 L272.5,1866.5" stroke="#E31B23" stroke-width="4.5" fill="none" stroke-linecap="round" stroke-linejoin="round" marker-end="url(#arrow)"/><path d="M697.5,1719.5 L697.5,1793 L697.5,1793 L697.5,1866.5" stroke="#E31B23" stroke-width="4.5" fill="none" stroke-linecap="round" stroke-linejoin="round" marker-end="url(#arrow)"/><path d="M697.5,1719.5 L697.5,1793 L1122.5,1793 L1122.5,1866.5" stroke="#E31B23" stroke-width="4.5" fill="none" stroke-linecap="round" stroke-linejoin="round" marker-end="url(#arrow)"/><path d="M697.5,1719.5 L697.5,1793 L1547.5,1793 L1547.5,1866.5" stroke="#E31B23" stroke-width="4.5" fill="none" stroke-linecap="round" stroke-linejoin="round" marker-end="url(#arrow)"/><rect x="735" y="203.5" width="350" height="176" rx="20" fill="#1A1A1A" stroke="#E31B23" stroke-width="5"/><text x="910" y="298.85" font-family="Arial,DejaVu Sans,sans-serif" fill="#FFFFFF" font-size="21" font-weight="700" text-anchor="middle"><tspan x="910" dy="0">RIAH PATHWAY SECONDARY SCHOOL</tspan></text><rect x="735" y="538.5" width="350" height="176" rx="20" fill="#1A1A1A" stroke="#E31B23" stroke-width="5"/><text x="910" y="633.85" font-family="Arial,DejaVu Sans,sans-serif" fill="#FFFFFF" font-size="21" font-weight="700" text-anchor="middle"><tspan x="910" dy="0">HIGH SCHOOL DIPLOMA</tspan></text><rect x="735" y="873.5" width="350" height="176" rx="20" fill="#1A1A1A" stroke="#E31B23" stroke-width="5"/><text x="910" y="955.2" font-family="Arial,DejaVu Sans,sans-serif" fill="#FFFFFF" font-size="21" font-weight="700" text-anchor="middle"><tspan x="910" dy="0">CONCURRENT COLLEGE-LEVEL</tspan><tspan x="910" dy="27.3">CREDIT WHERE APPLICABLE</tspan></text><rect x="735" y="1208.5" width="350" height="176" rx="20" fill="#1A1A1A" stroke="#E31B23" stroke-width="5"/><text x="910" y="1303.85" font-family="Arial,DejaVu Sans,sans-serif" fill="#FFFFFF" font-size="21" font-weight="700" text-anchor="middle"><tspan x="910" dy="0">STUDENT CHOOSES</tspan></text><rect x="522.5" y="1543.5" width="350" height="176" rx="20" fill="#1A1A1A" stroke="#E31B23" stroke-width="5"/><text x="697.5" y="1638.85" font-family="Arial,DejaVu Sans,sans-serif" fill="#FFFFFF" font-size="21" font-weight="700" text-anchor="middle"><tspan x="697.5" dy="0">RIAH PATHWAY</tspan></text><rect x="97.5" y="1878.5" width="350" height="176" rx="20" fill="#1A1A1A" stroke="#E31B23" stroke-width="5"/><text x="272.5" y="1973.85" font-family="Arial,DejaVu Sans,sans-serif" fill="#FFFFFF" font-size="21" font-weight="700" text-anchor="middle"><tspan x="272.5" dy="0">School of Business</tspan></text><rect x="522.5" y="1878.5" width="350" height="176" rx="20" fill="#1A1A1A" stroke="#E31B23" stroke-width="5"/><text x="697.5" y="1973.85" font-family="Arial,DejaVu Sans,sans-serif" fill="#FFFFFF" font-size="21" font-weight="700" text-anchor="middle"><tspan x="697.5" dy="0">School of Technology</tspan></text><rect x="947.5" y="1878.5" width="350" height="176" rx="20" fill="#1A1A1A" stroke="#E31B23" stroke-width="5"/><text x="1122.5" y="1973.85" font-family="Arial,DejaVu Sans,sans-serif" fill="#FFFFFF" font-size="21" font-weight="700" text-anchor="middle"><tspan x="1122.5" dy="0">School of Law</tspan></text><rect x="1372.5" y="1878.5" width="350" height="176" rx="20" fill="#1A1A1A" stroke="#E31B23" stroke-width="5"/><text x="1547.5" y="1973.85" font-family="Arial,DejaVu Sans,sans-serif" fill="#FFFFFF" font-size="21" font-weight="700" text-anchor="middle"><tspan x="1547.5" dy="0">School of Homeland Security</tspan></text><rect x="947.5" y="1543.5" width="350" height="176" rx="20" fill="#1A1A1A" stroke="#E31B23" stroke-width="5"/><text x="1122.5" y="1625.1999999999998" font-family="Arial,DejaVu Sans,sans-serif" fill="#FFFFFF" font-size="21" font-weight="700" text-anchor="middle"><tspan x="1122.5" dy="0">OTHER POSTSECONDARY</tspan><tspan x="1122.5" dy="27.3">INSTITUTION</tspan></text><text x="60" y="2183" fill="#BDBDBD" font-family="Arial,DejaVu Sans,sans-serif" font-size="16">RIAH Pathway • original diagram steps and connections preserved</text></svg>
