<svg xmlns="http://www.w3.org/2000/svg" width="970" height="1540" viewBox="0 0 970 1540" role="img" aria-label="FLOW 05 RIAH PATHWAY TUITION PRICING FEES"><title>FLOW 05 RIAH PATHWAY TUITION PRICING FEES</title><defs><marker id="arrow" markerWidth="10" markerHeight="10" refX="9" refY="5" orient="auto"><path d="M0,0 L10,5 L0,10 Z" fill="#E31B23"/></marker></defs><rect width="970" height="1540" fill="#101010"/><rect width="970" height="9" fill="#D40000"/><text x="60" y="52" fill="#FFFFFF" font-family="Arial,DejaVu Sans,sans-serif" font-size="30" font-weight="700">FLOW 05 RIAH PATHWAY TUITION PRICING FEES</text><text x="60" y="86" fill="#CCCCCC" font-family="Arial,DejaVu Sans,sans-serif" font-size="18">Complete diagram • split sections shown in Markdown where needed</text><path d="M485,379.5 L485,431 L485,431 L485,482.5" stroke="#E31B23" stroke-width="4.5" fill="none" stroke-linecap="round" stroke-linejoin="round" marker-end="url(#arrow)"/><path d="M485,758.5 L485,810 L272.5,810 L272.5,861.5" stroke="#E31B23" stroke-width="4.5" fill="none" stroke-linecap="round" stroke-linejoin="round" marker-end="url(#arrow)"/><rect x="340.75" y="771" width="76" height="34" rx="7" fill="#FFFFFF" stroke="#CC0000" stroke-width="2"/><text x="378.75" y="794" font-size="18" font-weight="700" text-anchor="middle" fill="#101010" font-family="Arial,sans-serif">No</text><path d="M485,758.5 L485,810 L697.5,810 L697.5,861.5" stroke="#E31B23" stroke-width="4.5" fill="none" stroke-linecap="round" stroke-linejoin="round" marker-end="url(#arrow)"/><rect x="553.25" y="771" width="76" height="34" rx="7" fill="#FFFFFF" stroke="#CC0000" stroke-width="2"/><text x="591.25" y="794" font-size="18" font-weight="700" text-anchor="middle" fill="#101010" font-family="Arial,sans-serif">Yes</text><path d="M697.5,1049.5 L697.5,1123 L485,1123 L485,1196.5" stroke="#E31B23" stroke-width="4.5" fill="none" stroke-linecap="round" stroke-linejoin="round" marker-end="url(#arrow)"/><rect x="310" y="203.5" width="350" height="176" rx="20" fill="#1A1A1A" stroke="#E31B23" stroke-width="5"/><text x="485" y="285.20000000000005" font-family="Arial,DejaVu Sans,sans-serif" fill="#FFFFFF" font-size="21" font-weight="700" text-anchor="middle"><tspan x="485" dy="0">10% Collateral-Supported</tspan><tspan x="485" dy="27.3">Amount</tspan></text><polygon points="485,494.5 617,626.5 485,758.5 353,626.5" fill="#321717" stroke="#FF3434" stroke-width="6"/><text x="485" y="633.5" font-family="Arial,DejaVu Sans,sans-serif" fill="#FFFFFF" font-size="20" font-weight="700" text-anchor="middle"><tspan x="485" dy="0">Credit Score 700+</tspan></text><rect x="97.5" y="873.5" width="350" height="176" rx="20" fill="#1A1A1A" stroke="#E31B23" stroke-width="5"/><text x="272.5" y="955.2" font-family="Arial,DejaVu Sans,sans-serif" fill="#FFFFFF" font-size="21" font-weight="700" text-anchor="middle"><tspan x="272.5" dy="0">Loan Limited to 10%</tspan><tspan x="272.5" dy="27.3">Collateral Tier</tspan></text><rect x="522.5" y="873.5" width="350" height="176" rx="20" fill="#1A1A1A" stroke="#E31B23" stroke-width="5"/><text x="697.5" y="955.2" font-family="Arial,DejaVu Sans,sans-serif" fill="#FFFFFF" font-size="21" font-weight="700" text-anchor="middle"><tspan x="697.5" dy="0">May Exceed 10% Collateral</tspan><tspan x="697.5" dy="27.3">Tier</tspan></text><rect x="310" y="1208.5" width="350" height="176" rx="20" fill="#1A1A1A" stroke="#E31B23" stroke-width="5"/><text x="485" y="1290.1999999999998" font-family="Arial,DejaVu Sans,sans-serif" fill="#FFFFFF" font-size="21" font-weight="700" text-anchor="middle"><tspan x="485" dy="0">Maximum = Remaining Tuition</tspan><tspan x="485" dy="27.3">Deficit or $5,000</tspan></text><text x="60" y="1513" fill="#BDBDBD" font-family="Arial,DejaVu Sans,sans-serif" font-size="16">RIAH Pathway • original diagram steps and connections preserved</text></svg>
