<svg xmlns="http://www.w3.org/2000/svg" width="3404" height="745" viewBox="0 0 3404 745" role="img" aria-label="🧩 Development Structure"><title>🧩 Development Structure</title><defs><marker id="arrow" markerWidth="8" markerHeight="8" refX="7" refY="4" orient="auto"><path d="M0,0 L8,4 L0,8 Z" fill="#CC0000"/></marker></defs><rect width="3404" height="745" fill="#101010"/><rect x="0" y="0" width="3404" height="7" fill="#CC0000"/><text x="48" y="50" fill="#FFFFFF" font-family="Arial,sans-serif" font-size="26" font-weight="700">🧩 Development Structure</text><path d="M1702,257 L1702,304 L946,304 L946,346" fill="none" stroke="#CC0000" stroke-width="2.5" marker-end="url(#arrow)" opacity=".95"/><path d="M1702,257 L1702,304 L1324,304 L1324,346" fill="none" stroke="#CC0000" stroke-width="2.5" marker-end="url(#arrow)" opacity=".95"/><path d="M1702,257 L1702,304 L1702,304 L1702,346" fill="none" stroke="#CC0000" stroke-width="2.5" marker-end="url(#arrow)" opacity=".95"/><path d="M1702,257 L1702,304 L2080,304 L2080,346" fill="none" stroke="#CC0000" stroke-width="2.5" marker-end="url(#arrow)" opacity=".95"/><path d="M1702,257 L1702,304 L2458,304 L2458,346" fill="none" stroke="#CC0000" stroke-width="2.5" marker-end="url(#arrow)" opacity=".95"/><path d="M946,477 L946,524 L190,524 L190,566" fill="none" stroke="#CC0000" stroke-width="2.5" marker-end="url(#arrow)" opacity=".95"/><path d="M946,477 L946,524 L568,524 L568,566" fill="none" stroke="#CC0000" stroke-width="2.5" marker-end="url(#arrow)" opacity=".95"/><path d="M1324,477 L1324,524 L946,524 L946,566" fill="none" stroke="#CC0000" stroke-width="2.5" marker-end="url(#arrow)" opacity=".95"/><path d="M1324,477 L1324,524 L1324,524 L1324,566" fill="none" stroke="#CC0000" stroke-width="2.5" marker-end="url(#arrow)" opacity=".95"/><path d="M1702,477 L1702,524 L1702,524 L1702,566" fill="none" stroke="#CC0000" stroke-width="2.5" marker-end="url(#arrow)" opacity=".95"/><path d="M2080,477 L2080,524 L2080,524 L2080,566" fill="none" stroke="#CC0000" stroke-width="2.5" marker-end="url(#arrow)" opacity=".95"/><path d="M2080,477 L2080,524 L2458,524 L2458,566" fill="none" stroke="#CC0000" stroke-width="2.5" marker-end="url(#arrow)" opacity=".95"/><path d="M2458,477 L2458,524 L2836,524 L2836,566" fill="none" stroke="#CC0000" stroke-width="2.5" marker-end="url(#arrow)" opacity=".95"/><path d="M2458,477 L2458,524 L3214,524 L3214,566" fill="none" stroke="#CC0000" stroke-width="2.5" marker-end="url(#arrow)" opacity=".95"/><rect x="1560" y="131" width="284" height="126" rx="13" fill="#181818" stroke="#D40000" stroke-width="3"/><text x="1702" y="199" font-family="Arial,sans-serif" fill="#FFFFFF" text-anchor="middle" font-size="16" font-weight="600"><tspan x="1702" dy="0">👑 RIAH Pathway</tspan></text><rect x="804" y="351" width="284" height="126" rx="13" fill="#181818" stroke="#D40000" stroke-width="3"/><text x="946" y="419" font-family="Arial,sans-serif" fill="#FFFFFF" text-anchor="middle" font-size="16" font-weight="600"><tspan x="946" dy="0">🌐 Website</tspan></text><rect x="1182" y="351" width="284" height="126" rx="13" fill="#181818" stroke="#D40000" stroke-width="3"/><text x="1324" y="419" font-family="Arial,sans-serif" fill="#FFFFFF" text-anchor="middle" font-size="16" font-weight="600"><tspan x="1324" dy="0">🎓 Education</tspan></text><rect x="1560" y="351" width="284" height="126" rx="13" fill="#181818" stroke="#D40000" stroke-width="3"/><text x="1702" y="419" font-family="Arial,sans-serif" fill="#FFFFFF" text-anchor="middle" font-size="16" font-weight="600"><tspan x="1702" dy="0">💼 Experiential</tspan></text><rect x="1938" y="351" width="284" height="126" rx="13" fill="#181818" stroke="#D40000" stroke-width="3"/><text x="2080" y="419" font-family="Arial,sans-serif" fill="#FFFFFF" text-anchor="middle" font-size="16" font-weight="600"><tspan x="2080" dy="0">💻 Technology</tspan></text><rect x="2316" y="351" width="284" height="126" rx="13" fill="#181818" stroke="#D40000" stroke-width="3"/><text x="2458" y="419" font-family="Arial,sans-serif" fill="#FFFFFF" text-anchor="middle" font-size="16" font-weight="600"><tspan x="2458" dy="0">📚 Products</tspan></text><rect x="48" y="571" width="284" height="126" rx="13" fill="#181818" stroke="#D40000" stroke-width="3"/><text x="190" y="639" font-family="Arial,sans-serif" fill="#FFFFFF" text-anchor="middle" font-size="16" font-weight="600"><tspan x="190" dy="0">Wireframes</tspan></text><rect x="426" y="571" width="284" height="126" rx="13" fill="#181818" stroke="#D40000" stroke-width="3"/><text x="568" y="639" font-family="Arial,sans-serif" fill="#FFFFFF" text-anchor="middle" font-size="16" font-weight="600"><tspan x="568" dy="0">Routing &amp; CTAs</tspan></text><rect x="804" y="571" width="284" height="126" rx="13" fill="#181818" stroke="#D40000" stroke-width="3"/><text x="946" y="639" font-family="Arial,sans-serif" fill="#FFFFFF" text-anchor="middle" font-size="16" font-weight="600"><tspan x="946" dy="0">Schools</tspan></text><rect x="1182" y="571" width="284" height="126" rx="13" fill="#181818" stroke="#D40000" stroke-width="3"/><text x="1324" y="639" font-family="Arial,sans-serif" fill="#FFFFFF" text-anchor="middle" font-size="16" font-weight="600"><tspan x="1324" dy="0">Curriculum</tspan></text><rect x="1560" y="571" width="284" height="126" rx="13" fill="#181818" stroke="#D40000" stroke-width="3"/><text x="1702" y="639" font-family="Arial,sans-serif" fill="#FFFFFF" text-anchor="middle" font-size="16" font-weight="600"><tspan x="1702" dy="0">Professional Experience</tspan></text><rect x="1938" y="571" width="284" height="126" rx="13" fill="#181818" stroke="#D40000" stroke-width="3"/><text x="2080" y="639" font-family="Arial,sans-serif" fill="#FFFFFF" text-anchor="middle" font-size="16" font-weight="600"><tspan x="2080" dy="0">AI &amp; Automation</tspan></text><rect x="2316" y="571" width="284" height="126" rx="13" fill="#181818" stroke="#D40000" stroke-width="3"/><text x="2458" y="639" font-family="Arial,sans-serif" fill="#FFFFFF" text-anchor="middle" font-size="16" font-weight="600"><tspan x="2458" dy="0">Infrastructure &amp; Security</tspan></text><rect x="2694" y="571" width="284" height="126" rx="13" fill="#181818" stroke="#D40000" stroke-width="3"/><text x="2836" y="639" font-family="Arial,sans-serif" fill="#FFFFFF" text-anchor="middle" font-size="16" font-weight="600"><tspan x="2836" dy="0">Educational Products</tspan></text><rect x="3072" y="571" width="284" height="126" rx="13" fill="#181818" stroke="#D40000" stroke-width="3"/><text x="3214" y="630" font-family="Arial,sans-serif" fill="#FFFFFF" text-anchor="middle" font-size="16" font-weight="600"><tspan x="3214" dy="0">Certification &amp; Bar Review</tspan><tspan x="3214" dy="18">Resources</tspan></text></svg>
