<svg xmlns="http://www.w3.org/2000/svg" width="780" height="515" viewBox="0 0 780 515"><rect width="100%" height="100%" fill="#ffffff"/><rect x="45" y="15" width="690" height="46" rx="9" fill="#f7f7f7" stroke="#b31322" stroke-width="2"/><text x="390" y="44" font-size="16" text-anchor="middle" font-family="Arial,sans-serif" fill="#111111">Student</text><path d="M390 61 V94" stroke="#b31322" stroke-width="3"/><path d="M383 86 L390 94 L397 86" fill="none" stroke="#b31322" stroke-width="3"/><rect x="45" y="95" width="690" height="46" rx="9" fill="#f7f7f7" stroke="#b31322" stroke-width="2"/><text x="390" y="124" font-size="16" text-anchor="middle" font-family="Arial,sans-serif" fill="#111111">SuiteDash Help Desk</text><path d="M390 141 V174" stroke="#b31322" stroke-width="3"/><path d="M383 166 L390 174 L397 166" fill="none" stroke="#b31322" stroke-width="3"/><rect x="45" y="175" width="690" height="46" rx="9" fill="#f7f7f7" stroke="#b31322" stroke-width="2"/><text x="390" y="204" font-size="16" text-anchor="middle" font-family="Arial,sans-serif" fill="#111111">Ticket</text><path d="M390 221 V254" stroke="#b31322" stroke-width="3"/><path d="M383 246 L390 254 L397 246" fill="none" stroke="#b31322" stroke-width="3"/><rect x="45" y="255" width="690" height="46" rx="9" fill="#f7f7f7" stroke="#b31322" stroke-width="2"/><text x="390" y="284" font-size="16" text-anchor="middle" font-family="Arial,sans-serif" fill="#111111">Applicable Department</text><path d="M390 301 V334" stroke="#b31322" stroke-width="3"/><path d="M383 326 L390 334 L397 326" fill="none" stroke="#b31322" stroke-width="3"/><rect x="45" y="335" width="690" height="46" rx="9" fill="#f7f7f7" stroke="#b31322" stroke-width="2"/><text x="390" y="364" font-size="16" text-anchor="middle" font-family="Arial,sans-serif" fill="#111111">Human Support</text><path d="M390 381 V414" stroke="#b31322" stroke-width="3"/><path d="M383 406 L390 414 L397 406" fill="none" stroke="#b31322" stroke-width="3"/><rect x="45" y="415" width="690" height="46" rx="9" fill="#f7f7f7" stroke="#b31322" stroke-width="2"/><text x="390" y="444" font-size="16" text-anchor="middle" font-family="Arial,sans-serif" fill="#111111">Resolution</text></svg>